<svg xmlns="http://www.w3.org/2000/svg" viewBox="0 0 64 64">
  <defs>
    <linearGradient id="bg" x1="8" x2="56" y1="6" y2="58" gradientUnits="userSpaceOnUse">
      <stop stop-color="#80e9ff"/>
      <stop offset="0.45" stop-color="#635bff"/>
      <stop offset="1" stop-color="#00d4a6"/>
    </linearGradient>
    <linearGradient id="gown" x1="22" x2="43" y1="29" y2="57" gradientUnits="userSpaceOnUse">
      <stop stop-color="#0a2540"/>
      <stop offset="1" stop-color="#142f4f"/>
    </linearGradient>
  </defs>
  <rect width="64" height="64" rx="16" fill="url(#bg)"/>
  <path d="M12 22 32 12l20 10-20 10L12 22Z" fill="#07111f"/>
  <path d="M20 27v7c0 4 5.4 7 12 7s12-3 12-7v-7l-12 6-12-6Z" fill="#ffffff" opacity="0.94"/>
  <path d="M49 24v12" fill="none" stroke="#ffd166" stroke-width="3" stroke-linecap="round"/>
  <circle cx="49" cy="39" r="3.5" fill="#ffd166"/>
  <path d="M25 36h14l7 20H18l7-20Z" fill="url(#gown)"/>
  <path d="M32 37v18" stroke="#80e9ff" stroke-width="2.5" stroke-linecap="round" opacity="0.9"/>
  <path d="M27 42 32 48l5-6" fill="none" stroke="#ffffff" stroke-width="2.5" stroke-linecap="round" stroke-linejoin="round" opacity="0.92"/>
</svg>
